<svg id="Layer_1" data-name="Layer 1" xmlns="http://www.w3.org/2000/svg" viewBox="0 0 1200 1200"><defs><style>.cls-1{fill:#320e0d;}</style></defs><title>Kamino Logo V2</title><path class="cls-1" d="M507.35,676.42c1.45-47.91-50.36-88.29-115.83-90.27C243.07,585,201.83,308.55,204.46,221.87l138.42,156C302.92,217.62,182.44,41.9,88.28,0c39.62,76.39,34.5,102.27,33,151.38-8.86,292.26,53.75,530.86,140,533.48-3.64,167.63,22.1,224.8,179.27,239.69L511.72,1200ZM310.37,697c134.42-7.23,176.33,57.81,185,94C433.22,825.67,339.28,831.45,310.37,697Z"/><path class="cls-1" d="M688.28,1200l71.18-275.45c157.16-14.89,182.9-72.06,179.27-239.69,86.24-2.61,148.85-241.22,140-533.48-1.49-49.12-6.61-75,33-151.38-94.17,41.9-214.64,217.62-254.61,377.89l138.42-156c2.63,86.68-38.61,363.13-187.06,364.28-65.48,2-117.29,42.36-115.83,90.27Zm16.35-409c8.67-36.13,50.59-101.17,185-94C860.72,831.45,766.78,825.67,704.63,791Z"/><circle class="cls-1" cx="500" cy="375" r="60"/><circle class="cls-1" cx="700" cy="375" r="60"/></svg>