<svg id="Layer_2" data-name="Layer 2" xmlns="http://www.w3.org/2000/svg" viewBox="0 0 1942 1942"><defs><style>.cls-1{fill:#930504;}</style></defs><title>Medic Logo</title><path id="Circle" class="cls-1" d="M1024.5,52.5c-536.27,0-971,434.73-971,971s434.73,971,971,971,971-434.73,971-971S1560.77,52.5,1024.5,52.5Zm0,1853c-487.12,0-882-394.88-882-882s394.88-882,882-882,882,394.88,882,882S1511.62,1905.5,1024.5,1905.5Z" transform="translate(-53.5 -52.5)"/><path id="Health" class="cls-1" d="M1198.67,993,1353,814h184V582H1305V774L1142,959.12V206H746l.5.5v551l-.5-.5H264v445H928.14L767,1385H563v252H815V1438l203.47-236H1119v673l243-167V1202h426V993Z" transform="translate(-53.5 -52.5)"/></svg>